<?xml version="1.0" encoding="utf-8"?>
<!-- Generator: Adobe Illustrator 19.0.0, SVG Export Plug-In . SVG Version: 6.00 Build 0)  -->
<svg version="1.1" xmlns="http://www.w3.org/2000/svg" xmlns:xlink="http://www.w3.org/1999/xlink" x="0px" y="0px"
	 viewBox="0 0 743 150" style="enable-background:new 0 0 743 150;" xml:space="preserve">
<style type="text/css">
	.st0{fill:#3242B7;}
</style>
<g id="Layer_1">
	<g id="XMLID_2_">
		<path id="XMLID_3_" class="st0" d="M70.2,43.3c6.1,3.5,11,8.3,14.5,14.6c3.5,6.3,5.3,13.5,5.3,21.8c0,8.3-1.8,15.6-5.3,21.8
			c-3.5,6.3-8.3,11.1-14.5,14.5c-6.1,3.5-13,5.2-20.5,5.2c-11.1,0-19.6-3.5-25.4-10.5v9.3H2V8.8h23.4v39.1c5.9-6.5,14-9.8,24.3-9.8
			C57.2,38.1,64,39.9,70.2,43.3z M60.4,96c3.8-4,5.8-9.5,5.8-16.3c0-6.8-1.9-12.2-5.8-16.3c-3.9-4-8.8-6.1-14.8-6.1
			s-10.9,2-14.8,6.1c-3.9,4-5.8,9.5-5.8,16.3c0,6.8,1.9,12.2,5.8,16.3c3.8,4.1,8.8,6.1,14.8,6.1S56.6,100,60.4,96z"/>
		<path id="XMLID_6_" class="st0" d="M121,115.9c-6.8-3.5-12-8.5-15.8-14.8c-3.8-6.3-5.7-13.4-5.7-21.5c0-8,1.9-15.1,5.7-21.4
			c3.8-6.3,9.1-11.2,15.8-14.8c6.8-3.5,14.4-5.3,22.9-5.3c8.5,0,16.1,1.8,22.8,5.3c6.7,3.6,11.9,8.5,15.8,14.8
			c3.8,6.3,5.7,13.5,5.7,21.4c0,8-1.9,15.1-5.7,21.5c-3.8,6.3-9.1,11.2-15.8,14.8c-6.7,3.6-14.3,5.3-22.8,5.3
			C135.4,121.3,127.8,119.5,121,115.9z M158.7,96c3.8-4,5.8-9.5,5.8-16.3c0-6.8-1.9-12.2-5.8-16.3c-3.9-4-8.8-6.1-14.8-6.1
			s-11,2-14.9,6.1s-5.9,9.5-5.9,16.3c0,6.8,2,12.2,5.9,16.3c3.9,4.1,8.9,6.1,14.9,6.1S154.8,100,158.7,96z"/>
		<path id="XMLID_9_" class="st0" d="M285,39.3V120h-22.2v-9.6c-3.1,3.5-6.8,6.2-11.1,8c-4.3,1.8-9,2.8-13.9,2.8
			c-10.6,0-19-3-25.2-9.2c-6.2-6.1-9.3-15.1-9.3-27.1V39.3h23.4v42.2c0,13,5.4,19.5,16.4,19.5c5.6,0,10.1-1.8,13.5-5.5
			c3.4-3.6,5.1-9.1,5.1-16.3V39.3H285z"/>
		<path id="XMLID_11_" class="st0" d="M358.8,116.1c-2.3,1.7-5.1,3-8.5,3.8c-3.4,0.8-6.9,1.3-10.6,1.3c-9.6,0-17-2.4-22.3-7.4
			c-5.3-4.9-7.9-12.1-7.9-21.6V59.1h-12.4v-18h12.4V21.5H333v19.6h20.1v18H333V92c0,3.4,0.9,6,2.6,7.9c1.7,1.9,4.2,2.8,7.4,2.8
			c3.7,0,6.8-1,9.4-3L358.8,116.1z"/>
		<path id="XMLID_13_" class="st0" d="M373.2,24.3c-2.7-2.5-4-5.6-4-9.3c0-3.7,1.3-6.8,4-9.3c2.7-2.5,6.2-3.8,10.5-3.8
			c4.3,0,7.8,1.2,10.5,3.6c2.7,2.4,4,5.4,4,9c0,3.9-1.3,7.1-4,9.7c-2.7,2.5-6.2,3.8-10.5,3.8C379.4,28.1,375.9,26.9,373.2,24.3z
			 M372,39.3h23.4V120H372V39.3z"/>
		<path id="XMLID_16_" class="st0" d="M499.1,39.3v109.8h-23.4v-37.6c-5.8,6.5-13.9,9.8-24.1,9.8c-7.6,0-14.5-1.7-20.6-5.1
			c-6.1-3.4-11-8.3-14.5-14.6c-3.5-6.3-5.3-13.6-5.3-21.9c0-8.3,1.7-15.6,5.3-21.9c3.5-6.3,8.3-11.1,14.5-14.5
			c6.1-3.4,13-5.1,20.6-5.1c11,0,19.4,3.5,25.2,10.5v-9.3H499.1z M470.3,96c3.9-4,5.9-9.5,5.9-16.3c0-6.8-2-12.2-5.9-16.3
			s-8.8-6.1-14.7-6.1c-6,0-11,2-14.9,6.1s-5.9,9.5-5.9,16.3c0,6.8,2,12.2,5.9,16.3c3.9,4.1,8.9,6.1,14.9,6.1
			C461.5,102,466.4,100,470.3,96z"/>
		<path id="XMLID_19_" class="st0" d="M602,39.3V120h-22.2v-9.6c-3.1,3.5-6.8,6.2-11.1,8c-4.3,1.8-9,2.8-13.9,2.8
			c-10.6,0-19-3-25.2-9.2c-6.2-6.1-9.3-15.1-9.3-27.1V39.3h23.4v42.2c0,13,5.4,19.5,16.4,19.5c5.6,0,10.1-1.8,13.5-5.5
			c3.4-3.6,5.1-9.1,5.1-16.3V39.3H602z"/>
		<path id="XMLID_21_" class="st0" d="M702.3,86.3h-61.1c1.1,5,3.7,9,7.8,11.9c4.1,2.9,9.2,4.4,15.3,4.4c4.2,0,7.9-0.6,11.2-1.9
			c3.2-1.2,6.3-3.2,9.1-5.9l12.5,13.5c-7.6,8.7-18.7,13.1-33.3,13.1c-9.1,0-17.2-1.8-24.1-5.3c-7-3.5-12.4-8.5-16.2-14.8
			c-3.8-6.3-5.7-13.4-5.7-21.5c0-7.9,1.9-15,5.6-21.4c3.8-6.3,8.9-11.3,15.5-14.9c6.5-3.5,13.9-5.3,22-5.3c7.9,0,15,1.7,21.4,5.1
			c6.4,3.4,11.4,8.3,15.1,14.6c3.6,6.4,5.5,13.7,5.5,22.1C702.8,80.3,702.6,82.4,702.3,86.3z M647.6,60.3c-3.6,3-5.8,7.1-6.6,12.3
			h39.7c-0.8-5.1-3-9.2-6.6-12.2c-3.6-3-8-4.6-13.2-4.6C655.6,55.8,651.2,57.3,647.6,60.3z"/>
		<path id="XMLID_24_" class="st0" d="M716.9,117c-2.8-2.8-4.2-6.3-4.2-10.5c0-4.3,1.4-7.8,4.2-10.4c2.8-2.6,6.2-4,10.4-4
			c4.1,0,7.5,1.3,10.3,4c2.8,2.7,4.2,6.1,4.2,10.4c0,4.2-1.4,7.7-4.2,10.5c-2.8,2.8-6.3,4.2-10.3,4.2
			C723.1,121.3,719.7,119.9,716.9,117z"/>
	</g>
</g>
<g id="Layer_2">
</g>
</svg>
