<?xml version="1.0" encoding="utf-8"?>
<!-- Generator: Adobe Illustrator 19.0.0, SVG Export Plug-In . SVG Version: 6.00 Build 0)  -->
<svg version="1.1" xmlns="http://www.w3.org/2000/svg" xmlns:xlink="http://www.w3.org/1999/xlink" x="0px" y="0px"
	 viewBox="0 0 619 203" style="enable-background:new 0 0 619 203;" xml:space="preserve">
<style type="text/css">
	.st0{display:none;}
	.st1{display:inline;fill:#070F59;}
	.st2{fill:#FFFFFF;}
	.st3{fill:url(#XMLID_12_);}
</style>
<g id="Layer_1" class="st0">
	<rect id="XMLID_1_" x="-318" y="-352" class="st1" width="1925" height="1920"/>
</g>
<g id="Layer_8">
	<polygon id="XMLID_3_" class="st2" points="0,6.3 97.2,6.3 95.6,1.6 200.7,1.6 199.1,6.3 294.8,6.3 200.7,202.3 152.1,103.5 
		144.3,103.5 97.2,202.3 	"/>
	<linearGradient id="XMLID_12_" gradientUnits="userSpaceOnUse" x1="114.0731" y1="-4.3056" x2="183.0658" y2="64.6871">
		<stop  offset="0" style="stop-color:#65C1FC"/>
		<stop  offset="0.495" style="stop-color:#337BF5"/>
		<stop  offset="0.97" style="stop-color:#7983E2"/>
	</linearGradient>
	<polygon id="XMLID_7_" class="st3" points="103.5,6.3 192.9,6.3 149,98.8 	"/>
	<g id="XMLID_14_">
		<g id="XMLID_144_">
			<path id="XMLID_145_" class="st2" d="M322.7,82.6h-12.3l-11.4-44.4h13.5l5.1,28.1h0.2l6.6-28.1h10.1l6.6,28.1h0.2l5.1-28.1h13.5
				l-11.4,44.4h-12.3l-6.6-25.4h-0.2L322.7,82.6z"/>
			<path id="XMLID_147_" class="st2" d="M395.1,82.6h-31.3V38.2h31.3v10.4h-18.3v7.2h17.1v9.4h-17.1v7.1h18.3V82.6z"/>
			<path id="XMLID_149_" class="st2" d="M400.7,82.6V38.2h21.8c9.1,0,14.4,4.2,14.4,11.1c0,5.1-3.9,9-9,9.6v0.2
				c6,0.2,11,4.7,11,10.6c0,7.8-6.2,12.9-15.7,12.9H400.7z M413.8,56h5c3.4,0,5.4-1.8,5.4-4.4c0-2.7-2-4.4-5.3-4.4h-5.2V56z
				 M419.3,73.6c4,0,6.3-1.8,6.3-5.2c0-3.2-2.3-5-6.2-5h-5.7v10.2H419.3z"/>
		</g>
		<g id="XMLID_124_">
			<path id="XMLID_125_" class="st2" d="M323.7,140c-14.1,0-22.4-8.3-22.4-23c0-14.6,8.3-22.9,22-22.9c11.1,0,19.4,6.6,20.4,15.7
				h-12.8c-0.9-3.3-3.8-5.4-7.5-5.4c-5.5,0-8.8,4.6-8.8,12.5c0,8.1,3.7,12.9,9.4,12.9c4.2,0,7.3-2.4,7.6-5.9l0.1-0.6h-6.8v-8.7h19.3
				v5.8C344.2,132.5,336.6,140,323.7,140z"/>
			<path id="XMLID_127_" class="st2" d="M360.6,139.3h-13V94.9h19.7c11.8,0,17.9,5.6,17.9,15.1c0,5.2-2.5,10.3-7.2,12.5l8.4,16.8
				h-14.6l-7-14.9h-4.3V139.3z M360.6,115.8h5.4c3.7,0,5.9-2.2,5.9-5.6c0-3.3-2.4-5.7-5.9-5.7h-5.4V115.8z"/>
			<path id="XMLID_130_" class="st2" d="M415.6,130.4h-13.5l-2.3,8.8h-13.3L401,94.9h16.4l14.5,44.4H418L415.6,130.4z M404.5,121.3
				h8.8l-4.3-16.1h-0.2L404.5,121.3z"/>
			<path id="XMLID_133_" class="st2" d="M454.3,94.9c9.9,0,16.5,6.3,16.5,16.2c0,9.8-7,16.1-17.4,16.1h-6.3v12.1h-13V94.9H454.3z
				 M447.1,117.5h3.7c4.3,0,6.9-2.2,6.9-6.4c0-4.2-2.6-6.4-6.8-6.4h-3.8V117.5z"/>
			<path id="XMLID_136_" class="st2" d="M502.3,139.3v-17.2h-15.6v17.2h-13V94.9h13v16.9h15.6V94.9h13v44.4H502.3z"/>
			<path id="XMLID_138_" class="st2" d="M519.7,139.3V94.9h13v44.4H519.7z"/>
			<path id="XMLID_140_" class="st2" d="M535.9,117.1c0-14.6,8.5-22.9,22-22.9c11.7,0,20.6,7.6,20.6,18.6h-12.5
				c-0.3-5-3.6-8.4-8.1-8.4c-5.4,0-8.7,4.7-8.7,12.7c0,8,3.4,12.8,8.8,12.8c4.5,0,7.8-3.3,8.2-8.4h12.5
				c-0.1,11.1-8.7,18.7-20.7,18.7C544.4,140,535.9,131.7,535.9,117.1z"/>
			<path id="XMLID_142_" class="st2" d="M592.8,126.2c0.4,2.5,3.4,4.2,7,4.2c3.9,0,6.3-1.6,6.3-3.7c0-2.1-1.6-3-6.4-3.8l-5.9-1
				c-8.2-1.4-12.6-6.1-12.6-13c0-9,7.7-14.6,18.3-14.6c11.8,0,18.4,5.4,18.5,14h-11.9c-0.1-2.8-2.8-4.4-6.3-4.4
				c-3.4,0-5.6,1.4-5.6,3.6c0,2.1,1.8,3.2,6,4l6.1,1c8.6,1.5,12.6,5.6,12.6,12.8c0,9.1-7.6,14.9-19.4,14.9c-11.9,0-19-5-19-13.8
				H592.8z"/>
		</g>
		<g id="XMLID_24_">
			<path id="XMLID_116_" class="st2" d="M332.6,202.3v-17.2H317v17.2h-13v-44.4h13v16.9h15.6v-16.9h13v44.4H332.6z"/>
			<path id="XMLID_118_" class="st2" d="M363,185c0,4.7,2.3,7.2,6.5,7.2s6.5-2.6,6.5-7.2v-27.1h13v28.6c0,10.1-7.8,16.6-19.6,16.6
				s-19.6-6.5-19.6-16.6v-28.6h13V185z"/>
			<path id="XMLID_120_" class="st2" d="M393.4,202.3v-44.4h21.8c9.1,0,14.4,4.2,14.4,11.1c0,5.1-3.9,9-9,9.6v0.2
				c6,0.2,11,4.7,11,10.6c0,7.8-6.2,12.9-15.7,12.9H393.4z M406.5,175.7h5c3.4,0,5.4-1.8,5.4-4.4c0-2.7-2-4.4-5.3-4.4h-5.2V175.7z
				 M412,193.3c4,0,6.3-1.8,6.3-5.2c0-3.2-2.3-5-6.2-5h-5.7v10.2H412z"/>
		</g>
	</g>
</g>
</svg>
